<?xml version="1.0" encoding="UTF-8"?>
<svg xmlns="http://www.w3.org/2000/svg" width="900" height="220" viewBox="0 0 900 220" fill="none" role="img" aria-label="航顺芯片完整标志">
<title>航顺芯片完整标志</title>
<defs>
  <linearGradient id="red" x1="0" y1="62" x2="190" y2="18" gradientUnits="userSpaceOnUse"><stop stop-color="#E90012"/><stop offset="1" stop-color="#FF3232"/></linearGradient>
  <linearGradient id="blue" x1="18" y1="166" x2="180" y2="78" gradientUnits="userSpaceOnUse"><stop stop-color="#052B82"/><stop offset="1" stop-color="#105AE6"/></linearGradient>
  <filter id="shadow" x="-20%" y="-20%" width="140%" height="140%"><feDropShadow dx="0" dy="6" stdDeviation="4" flood-color="#0B3A91" flood-opacity=".16"/></filter>
</defs>
<g transform="translate(18 16) scale(.80)" filter="url(#shadow)" fill-rule="evenodd" clip-rule="evenodd">
  <path d="M31 96C59 56 118 34 229 24c-13 16-29 32-47 48-60 8-108 20-143 42-7-6-10-12-8-18z" fill="url(#red)"/>
  <path d="M39 123c30-38 76-52 166-61l-17 30c-70 8-107 21-124 46-12 17 2 32 31 32h31l-11-24H93c-11 0-16-8-10-18 10-17 35-25 82-29l-20 38h31l-17 33h47l-18 32H92c-56 0-80-35-53-79z" fill="url(#blue)"/>
  <path d="M105 148c0 6-5 11-11 11s-11-5-11-11 5-11 11-11 11 5 11 11z" fill="#fff" opacity=".94"/>
  <path d="M129 134h20l17-32c-20 3-35 7-46 13l9 19z" fill="#fff" opacity=".94"/>
</g>
<text x="242" y="134" font-family="Noto Sans CJK SC, Microsoft YaHei, PingFang SC, sans-serif" font-weight="800" font-size="86" letter-spacing="10" fill="#0B3A91">航顺芯片</text>
<path d="M244 162h535" stroke="#1B62E8" stroke-opacity=".18" stroke-width="5" stroke-linecap="round"/>
</svg>