<?xml version="1.0" encoding="UTF-8"?>
<svg xmlns="http://www.w3.org/2000/svg" width="256" height="256" viewBox="0 0 256 256" fill="none" role="img" aria-label="ASM file document icon">
<title>ASM file document icon</title>
<defs>
  <linearGradient id="file_bg" x1="42" y1="30" x2="216" y2="236" gradientUnits="userSpaceOnUse">
    <stop stop-color="#FFFFFF" stop-opacity=".95"/>
    <stop offset="1" stop-color="#1B62E8" stop-opacity=".16"/>
  </linearGradient>
  <radialGradient id="file_halo" cx="0" cy="0" r="1" gradientUnits="userSpaceOnUse" gradientTransform="translate(128 130) rotate(90) scale(84)">
    <stop stop-color="#1B62E8" stop-opacity=".23"/>
    <stop offset=".55" stop-color="#1B62E8" stop-opacity=".10"/>
    <stop offset="1" stop-color="#1B62E8" stop-opacity="0"/>
  </radialGradient>
  <linearGradient id="file_circle" x1="86" y1="78" x2="170" y2="178" gradientUnits="userSpaceOnUse">
    <stop stop-color="#1B62E8"/>
    <stop offset="1" stop-color="#0B57E3"/>
  </linearGradient>
  <filter id="file_shadow" x="-40%" y="-40%" width="180%" height="180%" color-interpolation-filters="sRGB">
    <feDropShadow dx="0" dy="14" stdDeviation="16" flood-color="#1B62E8" flood-opacity=".20"/>
    <feDropShadow dx="0" dy="2" stdDeviation="2" flood-color="#0F172A" flood-opacity=".10"/>
  </filter>
  <filter id="file_soft" x="-25%" y="-25%" width="150%" height="150%" color-interpolation-filters="sRGB">
    <feDropShadow dx="0" dy="10" stdDeviation="14" flood-color="#0B3A91" flood-opacity=".14"/>
  </filter>
</defs>

<rect x="58" y="40" width="140" height="176" rx="22" fill="#EEF5FF" filter="url(#file_soft)"/>
<path d="M92 40h62l44 44v110c0 12-10 22-22 22H80c-12 0-22-10-22-22V62c0-12 10-22 22-22h12z" fill="#fff"/>
<path d="M154 42v34c0 6 5 11 11 11h33" fill="#E8F1FF"/>
<path d="M92 40h62l44 44v110c0 12-10 22-22 22H80c-12 0-22-10-22-22V62c0-12 10-22 22-22h12z" stroke="#1B62E8" stroke-width="12" stroke-linejoin="round"/>
<path d="M93 113h70M93 143h70M93 173h42" stroke="#1B62E8" stroke-width="13" stroke-linecap="round"/>

</svg>