<?xml version="1.0" encoding="UTF-8"?>
<svg xmlns="http://www.w3.org/2000/svg" width="256" height="256" viewBox="0 0 256 256" fill="none" role="img" aria-label="notification bell icon">
<title>notification bell icon</title>
<defs>
  <linearGradient id="bell_bg" x1="42" y1="30" x2="216" y2="236" gradientUnits="userSpaceOnUse">
    <stop stop-color="#FFFFFF" stop-opacity=".95"/>
    <stop offset="1" stop-color="#64748B" stop-opacity=".16"/>
  </linearGradient>
  <radialGradient id="bell_halo" cx="0" cy="0" r="1" gradientUnits="userSpaceOnUse" gradientTransform="translate(128 130) rotate(90) scale(84)">
    <stop stop-color="#64748B" stop-opacity=".23"/>
    <stop offset=".55" stop-color="#64748B" stop-opacity=".10"/>
    <stop offset="1" stop-color="#64748B" stop-opacity="0"/>
  </radialGradient>
  <linearGradient id="bell_circle" x1="86" y1="78" x2="170" y2="178" gradientUnits="userSpaceOnUse">
    <stop stop-color="#64748B"/>
    <stop offset="1" stop-color="#475569"/>
  </linearGradient>
  <filter id="bell_shadow" x="-40%" y="-40%" width="180%" height="180%" color-interpolation-filters="sRGB">
    <feDropShadow dx="0" dy="14" stdDeviation="16" flood-color="#64748B" flood-opacity=".20"/>
    <feDropShadow dx="0" dy="2" stdDeviation="2" flood-color="#0F172A" flood-opacity=".10"/>
  </filter>
  <filter id="bell_soft" x="-25%" y="-25%" width="150%" height="150%" color-interpolation-filters="sRGB">
    <feDropShadow dx="0" dy="10" stdDeviation="14" flood-color="#0B3A91" flood-opacity=".14"/>
  </filter>
</defs>

<circle cx="127" cy="129" r="88" fill="#EEF3F8" filter="url(#bell_soft)"/>
<path d="M83 156h90l-12-18v-32c0-24-14-43-33-43s-33 19-33 43v32l-12 18z" fill="#fff" stroke="#64748B" stroke-width="13" stroke-linejoin="round"/>
<path d="M116 176c3 9 9 14 18 14s15-5 18-14" stroke="#64748B" stroke-width="12" stroke-linecap="round"/>
<circle cx="174" cy="69" r="31" fill="#F2413D"/>
<text x="174" y="80" text-anchor="middle" font-family="Arial, sans-serif" font-weight="700" font-size="33" fill="#fff">3</text>

</svg>