<?xml version="1.0" encoding="UTF-8"?>
<svg xmlns="http://www.w3.org/2000/svg" width="256" height="256" viewBox="0 0 256 256" fill="none" role="img" aria-label="knowledge base navigation icon">
<title>knowledge base navigation icon</title>
<defs>
  <linearGradient id="knowledge_bg" x1="42" y1="30" x2="216" y2="236" gradientUnits="userSpaceOnUse">
    <stop stop-color="#FFFFFF" stop-opacity=".95"/>
    <stop offset="1" stop-color="#64748B" stop-opacity=".16"/>
  </linearGradient>
  <radialGradient id="knowledge_halo" cx="0" cy="0" r="1" gradientUnits="userSpaceOnUse" gradientTransform="translate(128 130) rotate(90) scale(84)">
    <stop stop-color="#64748B" stop-opacity=".23"/>
    <stop offset=".55" stop-color="#64748B" stop-opacity=".10"/>
    <stop offset="1" stop-color="#64748B" stop-opacity="0"/>
  </radialGradient>
  <linearGradient id="knowledge_circle" x1="86" y1="78" x2="170" y2="178" gradientUnits="userSpaceOnUse">
    <stop stop-color="#64748B"/>
    <stop offset="1" stop-color="#475569"/>
  </linearGradient>
  <filter id="knowledge_shadow" x="-40%" y="-40%" width="180%" height="180%" color-interpolation-filters="sRGB">
    <feDropShadow dx="0" dy="14" stdDeviation="16" flood-color="#64748B" flood-opacity=".20"/>
    <feDropShadow dx="0" dy="2" stdDeviation="2" flood-color="#0F172A" flood-opacity=".10"/>
  </filter>
  <filter id="knowledge_soft" x="-25%" y="-25%" width="150%" height="150%" color-interpolation-filters="sRGB">
    <feDropShadow dx="0" dy="10" stdDeviation="14" flood-color="#0B3A91" flood-opacity=".14"/>
  </filter>
</defs>

<circle cx="128" cy="128" r="86" fill="#F6FAFF" filter="url(#knowledge_soft)"/>
<path d="M69 67h92c15 0 27 12 27 27v95H95c-14 0-26-12-26-26V67z" fill="#fff" stroke="#64748B" stroke-width="12" stroke-linejoin="round"/>
<path d="M95 67v104c0 10 8 18 18 18" stroke="#64748B" stroke-width="12" stroke-linecap="round"/>
<path d="M120 103h42M120 133h42M120 163h25" stroke="#1B62E8" stroke-width="11" stroke-linecap="round"/>

</svg>