<svg xmlns="http://www.w3.org/2000/svg" width="24" height="24" viewBox="0 0 24 24" fill="none">
  <path d="M12 6.5v14" stroke="#4f5e73" stroke-width="2.05" stroke-linecap="round" stroke-linejoin="round" />
  <path
    d="M4.5 4.5h4.7c1.55 0 2.8 1.25 2.8 2.8v13c0-1.25-1.25-2.3-2.8-2.3H4.5c-1.1 0-2-.9-2-2V6.5c0-1.1.9-2 2-2z"
    stroke="#4f5e73"
    stroke-width="2.05"
    stroke-linecap="round"
    stroke-linejoin="round"
  />
  <path
    d="M19.5 4.5h-4.7c-1.55 0-2.8 1.25-2.8 2.8v13c0-1.25 1.25-2.3 2.8-2.3h4.7c1.1 0 2-.9 2-2V6.5c0-1.1-.9-2-2-2z"
    stroke="#4f5e73"
    stroke-width="2.05"
    stroke-linecap="round"
    stroke-linejoin="round"
  />
</svg>
